<svg xmlns="http://www.w3.org/2000/svg" viewBox="0 0 64 64" role="img" aria-label="CVassistant">
  <defs>
    <linearGradient id="g" x1="0" y1="0" x2="1" y2="1">
      <stop offset="0%" stop-color="#4ae0ad"/>
      <stop offset="100%" stop-color="#26c281"/>
    </linearGradient>
  </defs>
  <rect width="64" height="64" rx="16" fill="#f0f7ff"/>
  <path fill="url(#g)" d="M14 42V22h8.2c5.4 0 9 2.8 9 7.4 0 3.1-1.6 5.4-4.2 6.5L34 42h-9.2l-6.8-5.2H22v5.2H14zm8-10.2h.2c2.2 0 3.4-1 3.4-2.8 0-1.8-1.2-2.7-3.4-2.7H22v5.5zm18.8 10.2 7.2-20h8.6l7.2 20h-8.4l-1.2-3.6h-7.4l-1.2 3.6H40.8zm10.6-9.2-2.4-7-2.4 7h4.8z"/>
</svg>
